<?xml version="1.0" encoding="UTF-8"?>
<!DOCTYPE svg PUBLIC "-//W3C//DTD SVG 1.1//EN" "http://www.w3.org/Graphics/SVG/1.1/DTD/svg11.dtd">
<!-- Creator: CorelDRAW -->
<svg xmlns="http://www.w3.org/2000/svg" xml:space="preserve" width="1.99999in" height="1.99999in" version="1.1" style="shape-rendering:geometricPrecision; text-rendering:geometricPrecision; image-rendering:optimizeQuality; fill-rule:evenodd; clip-rule:evenodd"
viewBox="0 0 2000 2000"
 xmlns:xlink="http://www.w3.org/1999/xlink">
 <defs>
  <style type="text/css">
   <![CDATA[
    .fil0 {fill:#000002}
   ]]>
  </style>
 </defs>
 <g id="Layer_x0020_1">
  <metadata id="CorelCorpID_0Corel-Layer"/>
  <path class="fil0" d="M624 1491l0 -1304c0,-22 18,-40 40,-40l915 0c22,0 40,18 40,40l0 1344 0 0 0 140 0 1 0 1 0 140c0,22 -18,40 -40,40l-1017 0c-99,0 -182,-82 -181,-181l0 -1364c0,-89 72,-161 161,-161l52 0c-7,11 -11,25 -11,40l0 1304 41 0zm-163 181c0,-56 46,-101 101,-101l0 0 977 0 0 61 -758 0c-22,0 -40,18 -40,40 0,22 18,40 40,40l758 0 0 61 -977 0c-56,0 -101,-45 -101,-101zm660 -526c7,0 13,-3 17,-9l167 -268c4,-6 4,-14 0,-21l-167 -267c-4,-6 -10,-10 -17,-10 -7,0 -13,4 -17,10l-167 267c-4,7 -4,15 0,21l167 268c4,6 10,9 17,9zm-143 -287l143 -230 144 230 -144 230 -143 -230zm337 525c12,0 20,-8 20,-19 0,-43 35,-77 77,-77 11,0 20,-9 20,-20l0 -818c0,-11 -9,-20 -20,-20 -42,0 -77,-34 -77,-77 0,-11 -8,-20 -19,-20l-389 0c-11,0 -20,9 -20,20 0,43 -34,77 -77,77 -11,0 -20,9 -20,20l0 818c0,11 9,20 20,20 43,0 77,34 77,77 0,11 9,19 20,19l388 0zm-373 -54c-12,-36 -41,-66 -78,-77l-14 -4 0 -780 14 -4c37,-11 66,-41 78,-78l4 -14 350 0 5 14c11,37 40,67 77,78l14 4 0 780 -14 4c-37,11 -66,41 -77,77l-5 15 -350 0 -4 -15z"/>
 </g>
</svg>
