<?xml version="1.0" encoding="utf-8"?>
<!-- Generator: Adobe Illustrator 23.0.3, SVG Export Plug-In . SVG Version: 6.00 Build 0)  -->
<svg version="1.1" id="Layer_1" xmlns="http://www.w3.org/2000/svg" xmlns:xlink="http://www.w3.org/1999/xlink" x="0px" y="0px"
	 viewBox="0 0 512 512" style="enable-background:new 0 0 512 512;" xml:space="preserve">
<style type="text/css">
	.st0{fill:none;stroke:#231F20;stroke-width:15;stroke-linecap:round;stroke-linejoin:round;stroke-miterlimit:10;}
	.st1{fill:#231F20;}
	.st2{fill:none;stroke:#231F20;stroke-width:7.5;stroke-linecap:round;stroke-linejoin:round;stroke-miterlimit:10;}
</style>
<circle class="st0" cx="256" cy="256" r="206"/>
<g>
	<polygon class="st2" points="374.55,187.15 315.57,229.53 273.38,259.86 267.74,255.79 256,247.37 303.74,213.07 315.57,204.56 
		339.79,187.15 	"/>
	<polygon class="st2" points="256,272.34 255.8,272.49 255.8,272.22 	"/>
	<polygon class="st2" points="255.8,247.22 255.8,247.49 244.04,255.94 238.62,259.86 196.04,229.26 137.45,187.15 172.21,187.15 
		196.04,204.29 207.87,212.76 	"/>
	<polygon class="st2" points="256,247.37 255.8,247.49 255.8,247.22 	"/>
	<polygon class="st2" points="315.57,185.5 315.57,204.56 303.74,213.07 256,247.37 255.8,247.22 207.87,212.76 196.04,204.29 
		196.04,185.5 207.87,193.67 255.8,226.81 303.74,193.67 	"/>
	<polygon class="st2" points="255.8,272.22 255.8,272.49 242.46,282.07 172.21,332.56 137.45,332.56 226.96,268.24 238.62,259.86 	
		"/>
	<polygon class="st2" points="374.55,332.56 339.79,332.56 269.32,281.92 256,272.34 273.38,259.86 284.82,268.06 	"/>
	<polygon class="st2" points="273.38,259.86 256,272.34 255.8,272.22 238.62,259.86 244.04,255.94 255.8,247.49 256,247.37 
		267.74,255.79 	"/>
	<polygon class="st2" points="256,272.34 255.8,272.49 255.8,272.22 	"/>
	<polygon class="st2" points="256,247.37 255.8,247.49 255.8,247.22 	"/>
	<polygon class="st2" points="255.8,247.22 256,247.37 255.8,247.49 	"/>
	<polygon class="st2" points="303.74,179.44 303.74,193.67 255.8,226.81 207.87,193.67 207.87,179.44 255.8,212.55 	"/>
	<ellipse class="st1" cx="256" cy="259.86" rx="2.73" ry="3.86"/>
</g>
</svg>
