<?xml version="1.0" encoding="UTF-8"?>
<!DOCTYPE svg PUBLIC "-//W3C//DTD SVG 1.1//EN" "http://www.w3.org/Graphics/SVG/1.1/DTD/svg11.dtd">
<!-- Creator: CorelDRAW -->
<svg xmlns="http://www.w3.org/2000/svg" xml:space="preserve" width="512px" height="512px" version="1.1" style="shape-rendering:geometricPrecision; text-rendering:geometricPrecision; image-rendering:optimizeQuality; fill-rule:evenodd; clip-rule:evenodd"
viewBox="0 0 512 512"
 xmlns:xlink="http://www.w3.org/1999/xlink">
 <defs>
  <style type="text/css">
   <![CDATA[
    .fil2 {fill:url(#id0)}
    .fil5 {fill:url(#id1)}
    .fil12 {fill:url(#id2)}
    .fil4 {fill:url(#id3)}
    .fil3 {fill:url(#id4)}
    .fil13 {fill:url(#id5)}
    .fil15 {fill:url(#id6)}
    .fil17 {fill:url(#id7)}
    .fil16 {fill:url(#id8)}
    .fil14 {fill:url(#id9)}
    .fil18 {fill:url(#id10)}
    .fil1 {fill:url(#id11)}
    .fil0 {fill:url(#id12)}
    .fil6 {fill:url(#id13)}
    .fil7 {fill:url(#id14)}
    .fil9 {fill:url(#id15)}
    .fil8 {fill:url(#id16)}
    .fil11 {fill:url(#id17)}
    .fil10 {fill:url(#id18)}
   ]]>
  </style>
  <linearGradient id="id0" gradientUnits="userSpaceOnUse" x1="256" y1="404.094" x2="256" y2="94.2617">
   <stop offset="0" style="stop-opacity:1; stop-color:#8E4D21"/>
   <stop offset="1" style="stop-opacity:1; stop-color:#663300"/>
  </linearGradient>
  <linearGradient id="id1" gradientUnits="userSpaceOnUse" x1="358.76" y1="28.3418" x2="358.76" y2="354.448">
   <stop offset="0" style="stop-opacity:1; stop-color:#E0AC69"/>
   <stop offset="1" style="stop-opacity:1; stop-color:#F1C27D"/>
  </linearGradient>
  <linearGradient id="id2" gradientUnits="userSpaceOnUse" xlink:href="#id1" x1="153.236" y1="28.3418" x2="153.236" y2="354.448">
  </linearGradient>
  <linearGradient id="id3" gradientUnits="userSpaceOnUse" x1="255.998" y1="374.447" x2="255.998" y2="8.34451">
   <stop offset="0" style="stop-opacity:1; stop-color:#8E8E8E"/>
   <stop offset="1" style="stop-opacity:1; stop-color:#7E7E7E"/>
  </linearGradient>
  <linearGradient id="id4" gradientUnits="userSpaceOnUse" xlink:href="#id3" x1="255.998" y1="503.655" x2="255.998" y2="488.139">
  </linearGradient>
  <linearGradient id="id5" gradientUnits="userSpaceOnUse" x1="153.238" y1="121.164" x2="153.238" y2="72.69">
   <stop offset="0" style="stop-opacity:1; stop-color:#E6E6E6"/>
   <stop offset="1" style="stop-opacity:1; stop-color:#CCCCCC"/>
  </linearGradient>
  <linearGradient id="id6" gradientUnits="userSpaceOnUse" xlink:href="#id5" x1="153.238" y1="196.737" x2="153.238" y2="148.263">
  </linearGradient>
  <linearGradient id="id7" gradientUnits="userSpaceOnUse" xlink:href="#id5" x1="153.238" y1="272.31" x2="153.238" y2="223.836">
  </linearGradient>
  <linearGradient id="id8" gradientUnits="userSpaceOnUse" xlink:href="#id5" x1="153.238" y1="234.523" x2="153.238" y2="186.05">
  </linearGradient>
  <linearGradient id="id9" gradientUnits="userSpaceOnUse" xlink:href="#id5" x1="153.238" y1="158.95" x2="153.238" y2="110.477">
  </linearGradient>
  <linearGradient id="id10" gradientUnits="userSpaceOnUse" xlink:href="#id5" x1="153.238" y1="310.092" x2="153.238" y2="261.622">
  </linearGradient>
  <linearGradient id="id11" gradientUnits="userSpaceOnUse" xlink:href="#id0" x1="347.721" y1="503.655" x2="347.721" y2="366.168">
  </linearGradient>
  <linearGradient id="id12" gradientUnits="userSpaceOnUse" xlink:href="#id0" x1="164.273" y1="503.655" x2="164.273" y2="366.17">
  </linearGradient>
  <linearGradient id="id13" gradientUnits="userSpaceOnUse" xlink:href="#id5" x1="358.762" y1="121.164" x2="358.762" y2="72.6876">
  </linearGradient>
  <linearGradient id="id14" gradientUnits="userSpaceOnUse" xlink:href="#id5" x1="358.762" y1="158.95" x2="358.762" y2="110.474">
  </linearGradient>
  <linearGradient id="id15" gradientUnits="userSpaceOnUse" xlink:href="#id5" x1="358.762" y1="234.523" x2="358.762" y2="186.044">
  </linearGradient>
  <linearGradient id="id16" gradientUnits="userSpaceOnUse" xlink:href="#id5" x1="358.762" y1="196.737" x2="358.762" y2="148.257">
  </linearGradient>
  <linearGradient id="id17" gradientUnits="userSpaceOnUse" xlink:href="#id5" x1="358.761" y1="310.092" x2="358.761" y2="261.622">
  </linearGradient>
  <linearGradient id="id18" gradientUnits="userSpaceOnUse" xlink:href="#id5" x1="358.762" y1="272.31" x2="358.762" y2="223.836">
  </linearGradient>
 </defs>
 <g id="Layer_x0020_1">
  <metadata id="CorelCorpID_0Corel-Layer"/>
  <path class="fil0" d="M114 504c-1,0 -3,-1 -4,-1 -3,-2 -4,-5 -4,-9l28 -122c1,-4 5,-7 9,-6 4,1 6,4 7,7l56 13 3 -3c3,-3 8,-3 11,0 3,2 3,7 0,11l-100 107c-2,2 -4,3 -6,3z"/>
  <path class="fil1" d="M398 504c-2,0 -4,-1 -6,-3l-100 -107c-3,-4 -3,-9 0,-11 3,-3 8,-3 11,0l2 2 58 -12c0,-3 2,-6 6,-7 4,-1 8,2 9,6l28 122c0,4 -1,7 -4,9 -1,0 -3,1 -4,1z"/>
  <path class="fil2" d="M256 404c-1,0 -1,0 -1,0l-249 -49c-3,0 -6,-4 -6,-7l0 -213c0,-2 1,-4 3,-6l43 -33c3,-3 8,-2 11,1 0,1 0,2 1,2l396 0c1,0 1,-1 1,-2 3,-3 8,-4 11,-1l43 33c2,2 3,4 3,6l0 213c0,3 -3,7 -6,7l-249 49c0,0 -1,0 -1,0z"/>
  <path class="fil3" d="M474 504l-436 0c-4,0 -8,-4 -8,-8 0,-4 4,-8 8,-8l436 0c4,0 8,4 8,8 0,4 -4,8 -8,8z"/>
  <path class="fil4" d="M256 374c-2,0 -5,0 -7,0l-205 -50c-12,-3 -21,-14 -21,-27l0 -261c0,-8 4,-16 10,-22 7,-5 16,-7 24,-5l199 48 199 -48c8,-2 17,0 24,5 6,6 10,14 10,22l0 261c0,13 -9,24 -21,27l-205 50c-2,0 -5,0 -7,0z"/>
  <path class="fil5" d="M256 354c-2,0 -3,0 -5,-1 -2,-2 -3,-4 -3,-6l0 -262c0,-3 3,-6 6,-7l206 -49c2,-1 4,0 6,1 2,1 3,4 3,6l0 261c0,4 -2,7 -6,8l-205 49c-1,0 -1,0 -2,0z"/>
  <path class="fil6" d="M290 121c-4,0 -7,-2 -8,-6 -1,-4 2,-8 6,-9l138 -33c4,-1 8,1 9,6 1,4 -1,8 -6,9l-137 33c-1,0 -1,0 -2,0z"/>
  <path class="fil7" d="M290 159c-4,0 -7,-2 -8,-6 -1,-4 2,-8 6,-9l138 -33c4,-1 8,1 9,5 1,5 -1,9 -6,10l-137 33c-1,0 -1,0 -2,0z"/>
  <path class="fil8" d="M290 197c-4,0 -7,-3 -8,-6 -1,-4 2,-9 6,-10l138 -33c4,-1 8,2 9,6 1,4 -1,9 -6,10l-137 33c-1,0 -1,0 -2,0z"/>
  <path class="fil9" d="M290 235c-4,0 -7,-3 -8,-6 -1,-5 2,-9 6,-10l138 -33c4,-1 8,2 9,6 1,4 -1,8 -6,9l-137 33c-1,0 -1,1 -2,1z"/>
  <path class="fil10" d="M290 272c-4,0 -7,-2 -8,-6 -1,-4 2,-8 6,-9l138 -33c4,-1 8,2 9,6 1,4 -1,8 -6,9l-137 33c-1,0 -1,0 -2,0z"/>
  <path class="fil11" d="M290 310c-4,0 -7,-2 -8,-6 -1,-4 2,-8 6,-9l138 -33c4,-1 8,1 9,6 1,4 -1,8 -6,9l-137 33c-1,0 -1,0 -2,0z"/>
  <path class="fil12" d="M256 354c2,0 3,0 5,-1 2,-2 3,-4 3,-6l0 -262c0,-3 -3,-6 -6,-7l-206 -49c-2,-1 -4,0 -6,1 -2,1 -3,4 -3,6l0 261c0,4 2,7 6,8l205 49c1,0 1,0 2,0z"/>
  <path class="fil13" d="M222 121c-1,0 -1,0 -2,0l-137 -33c-5,-1 -7,-5 -6,-9 1,-5 5,-7 9,-6l138 33c4,1 7,5 6,9 -1,4 -4,6 -8,6z"/>
  <path class="fil14" d="M222 159c-1,0 -1,0 -2,0l-137 -33c-5,-1 -7,-5 -6,-10 1,-4 5,-6 9,-5l138 33c4,1 7,5 6,9 -1,4 -4,6 -8,6z"/>
  <path class="fil15" d="M222 197c-1,0 -1,0 -2,0l-137 -33c-5,-1 -7,-6 -6,-10 1,-4 5,-7 9,-6l138 33c4,1 7,6 6,10 -1,3 -4,6 -8,6z"/>
  <path class="fil16" d="M222 235c-1,0 -1,-1 -2,-1l-137 -33c-5,-1 -7,-5 -6,-9 1,-4 5,-7 9,-6l138 33c4,1 7,5 6,10 -1,3 -4,6 -8,6z"/>
  <path class="fil17" d="M222 272c-1,0 -1,0 -2,0l-137 -33c-5,-1 -7,-5 -6,-9 1,-4 5,-7 9,-6l138 33c4,1 7,5 6,9 -1,4 -4,6 -8,6z"/>
  <path class="fil18" d="M222 310c-1,0 -1,0 -2,0l-137 -33c-5,-1 -7,-5 -6,-9 1,-5 5,-7 9,-6l138 33c4,1 7,5 6,9 -1,4 -4,6 -8,6z"/>
 </g>
</svg>
