<?xml version="1.0" encoding="UTF-8"?>
<!DOCTYPE svg PUBLIC "-//W3C//DTD SVG 1.1//EN" "http://www.w3.org/Graphics/SVG/1.1/DTD/svg11.dtd">
<!-- Creator: CorelDRAW -->
<svg xmlns="http://www.w3.org/2000/svg" xml:space="preserve" width="1.99999in" height="1.99999in" version="1.1" style="shape-rendering:geometricPrecision; text-rendering:geometricPrecision; image-rendering:optimizeQuality; fill-rule:evenodd; clip-rule:evenodd"
viewBox="0 0 2000 2000"
 xmlns:xlink="http://www.w3.org/1999/xlink">
 <defs>
  <style type="text/css">
   <![CDATA[
    .fil0 {fill:#4D4D4D}
    .fil2 {fill:#999999}
    .fil1 {fill:#CCCCCC}
   ]]>
  </style>
 </defs>
 <g id="Layer_x0020_1">
  <metadata id="CorelCorpID_0Corel-Layer"/>
  <path class="fil0" d="M1539 1712l-758 0c-22,0 -40,-18 -40,-40 0,-22 18,-40 40,-40l758 0 0 -61 -977 0 0 0c-55,0 -101,45 -101,101l0 0c0,56 45,101 101,101l977 0 0 -61zm-915 -221l0 -1264 -82 0c-44,0 -81,36 -81,81l0 1214c29,-19 64,-31 101,-31l62 0zm40 -1344l915 0c22,0 40,18 40,40l0 1344 0 0 0 140 0 1 0 1 0 140c0,22 -18,40 -40,40l-1017 0c-99,0 -180,-80 -181,-180l0 -1 0 -1364c0,-89 72,-161 161,-161l122 0 0 0zm40 1344l835 0 0 -1264 -835 0 0 1264zm611 -86l-388 0c-22,0 -40,-18 -40,-40 0,-32 -25,-57 -57,-57 -22,0 -40,-18 -40,-40l0 -818c0,-22 18,-40 40,-40 32,0 57,-25 57,-57 0,-22 18,-40 40,-40l389 0c22,0 40,18 40,40 0,32 25,57 56,57 22,0 40,18 40,40l0 818c0,22 -18,40 -40,40 -31,0 -56,25 -56,57 -1,22 -18,40 -41,40zm-354 -80l320 0c14,-44 48,-78 91,-91l0 -750c-43,-13 -77,-47 -91,-91l-320 0c-13,44 -47,78 -91,91l0 750c44,13 78,47 91,91zm-500 347l0 0 0 0zm660 -506c-14,0 -26,-7 -34,-18l-167 -268c-8,-13 -8,-29 0,-42l167 -268c8,-12 20,-19 34,-19l0 0c14,0 27,7 34,19l167 268c8,13 8,29 0,42l-167 268c-7,11 -20,18 -34,18zm-120 -307l120 192 120 -192 -120 -192 -120 192z"/>
  <polygon class="fil1" points="1121,1051 1241,859 1121,667 1001,859 "/>
  <path class="fil2" d="M1155 570l167 268c8,13 8,29 0,42l-167 268c-7,11 -20,18 -34,18 -14,0 -26,-7 -34,-18l-167 -268c-8,-13 -8,-29 0,-42l167 -268c16,-25 53,-25 68,0zm-194 755l320 0c14,-44 48,-78 91,-91l0 -750c-43,-13 -77,-47 -91,-91l-320 0c-13,44 -47,78 -91,91l0 750c44,13 78,47 91,91z"/>
  <path class="fil1" d="M1412 410c22,0 40,18 40,40l0 818c0,22 -18,40 -40,40 -31,0 -56,25 -56,57 -1,22 -18,40 -41,40l-388 0c-22,0 -40,-18 -40,-40 0,-32 -25,-57 -57,-57 -22,0 -40,-18 -40,-40l0 -818c0,-22 18,-40 40,-40 32,0 57,-25 57,-57 0,-22 18,-40 40,-40l389 0c22,0 40,18 40,40 0,32 25,57 56,57zm-708 1081l835 0 0 -1264 -835 0 0 1264z"/>
  <path class="fil2" d="M624 1491l0 -1264 -82 0c-44,0 -81,36 -81,81l0 1214c54,-36 100,-31 163,-31z"/>
  <path class="fil2" d="M562 1571l0 0zm977 0l-977 0c-56,0 -101,46 -101,101 0,56 45,101 101,101l977 0 0 -61 -758 0c-22,0 -40,-18 -40,-40 0,-22 18,-40 40,-40l758 0 0 -61z"/>
 </g>
</svg>
